<svg xmlns="http://www.w3.org/2000/svg" width="64" height="64" viewBox="0 0 64 64">
  <rect x="12" y="6" width="8" height="8" rx="1" fill="#0e9aa7"></rect>
  <rect x="44" y="6" width="8" height="8" rx="1" fill="#0e9aa7"></rect>
  <rect x="20" y="14" width="8" height="8" rx="1" fill="#0e9aa7"></rect>
  <rect x="36" y="14" width="8" height="8" rx="1" fill="#0e9aa7"></rect>
  <rect x="12" y="22" width="8" height="8" rx="1" fill="#0e9aa7"></rect>
  <rect x="20" y="22" width="8" height="8" rx="1" fill="#0e9aa7"></rect>
  <rect x="28" y="22" width="8" height="8" rx="1" fill="#0e9aa7"></rect>
  <rect x="36" y="22" width="8" height="8" rx="1" fill="#0e9aa7"></rect>
  <rect x="44" y="22" width="8" height="8" rx="1" fill="#0e9aa7"></rect>
  <rect x="12" y="30" width="8" height="8" rx="1" fill="#0e9aa7"></rect>
  <rect x="20" y="30" width="8" height="8" rx="1" fill="#fbf6e9"></rect>
  <rect x="28" y="30" width="8" height="8" rx="1" fill="#0e9aa7"></rect>
  <rect x="36" y="30" width="8" height="8" rx="1" fill="#fbf6e9"></rect>
  <rect x="44" y="30" width="8" height="8" rx="1" fill="#0e9aa7"></rect>
  <rect x="12" y="38" width="8" height="8" rx="1" fill="#0e9aa7"></rect>
  <rect x="20" y="38" width="8" height="8" rx="1" fill="#0e9aa7"></rect>
  <rect x="28" y="38" width="8" height="8" rx="1" fill="#0e9aa7"></rect>
  <rect x="36" y="38" width="8" height="8" rx="1" fill="#0e9aa7"></rect>
  <rect x="44" y="38" width="8" height="8" rx="1" fill="#0e9aa7"></rect>
  <rect x="12" y="46" width="8" height="8" rx="1" fill="#0e9aa7"></rect>
  <rect x="20" y="46" width="8" height="8" rx="1" fill="#0e9aa7"></rect>
  <rect x="36" y="46" width="8" height="8" rx="1" fill="#0e9aa7"></rect>
  <rect x="44" y="46" width="8" height="8" rx="1" fill="#0e9aa7"></rect>
  <rect x="12" y="54" width="8" height="8" rx="1" fill="#0e9aa7"></rect>
  <rect x="44" y="54" width="8" height="8" rx="1" fill="#0e9aa7"></rect>
</svg>