<svg xmlns="http://www.w3.org/2000/svg" width="64" height="64" viewBox="0 0 64 64">
  <rect x="2" y="2" width="60" height="60" rx="3" fill="#8a7060"></rect>
  <rect x="4" y="4" width="56" height="26" rx="2" fill="#c4892e"></rect>
  <rect x="4" y="4" width="56" height="3" rx="1" fill="#0e9aa7" opacity="0.18"></rect>
  <line x1="4" y1="14" x2="60" y2="14" stroke="#b8823a" stroke-width="1.2" opacity="0.45"></line>
  <line x1="4" y1="22" x2="60" y2="22" stroke="#b8823a" stroke-width="1.2" opacity="0.45"></line>
  <rect x="10" y="8" width="4" height="14" rx="2" fill="#8a5e38"></rect>
  <rect x="7" y="6" width="10" height="5" rx="2" fill="#9aaaba"></rect>
  <circle cx="30" cy="16" r="7" fill="#9aaaba"></circle>
  <circle cx="30" cy="16" r="4" fill="#7a8a9a"></circle>
  <circle cx="30" cy="16" r="2" fill="#4a5a6a"></circle>
  <rect x="44" y="8" width="14" height="10" rx="2" fill="#7a8a9a"></rect>
  <rect x="46" y="14" width="10" height="4" rx="1" fill="#5a6a7a"></rect>
  <rect x="4" y="32" width="56" height="28" rx="2" fill="#7a6050"></rect>
  <rect x="8" y="36" width="18" height="18" rx="2" fill="#c4892e" stroke="#8a5e28" stroke-width="1"></rect>
  <line x1="8" y1="45" x2="26" y2="45" stroke="#8a5e28" stroke-width="1"></line>
  <line x1="17" y1="36" x2="17" y2="54" stroke="#8a5e28" stroke-width="1"></line>
  <ellipse cx="46" cy="46" rx="10" ry="10" fill="#c4892e"></ellipse>
  <ellipse cx="46" cy="46" rx="10" ry="10" fill="none" stroke="#8a5e28" stroke-width="1.5"></ellipse>
  <ellipse cx="46" cy="46" rx="6" ry="6" fill="none" stroke="#8a5e28" stroke-width="1"></ellipse>
</svg>